<?xml version="1.0" standalone="no"?><!DOCTYPE svg PUBLIC "-//W3C//DTD SVG 1.1//EN" "http://www.w3.org/Graphics/SVG/1.1/DTD/svg11.dtd"><svg t="1572585585822" class="icon" viewBox="0 0 1024 1024" version="1.1" xmlns="http://www.w3.org/2000/svg" p-id="11886" xmlns:xlink="http://www.w3.org/1999/xlink" width="200" height="200"><defs><style type="text/css"></style></defs><path d="M324.584028 660.756999c32.394804 18.688641 72.542176 9.801227 92.647073-24.997324 40.375569-69.949118 46.859237-141.81489 14.443967-160.503531-32.384571-18.690688-91.376127 22.810518-131.742487 92.76066C280.629957 601.441055 292.20048 642.045845 324.584028 660.756999L324.584028 660.756999zM893.165698 515.674693 893.165698 515.674693c22.601764 23.497157 43.070958 49.096185 61.072961 76.441996 9.739828 14.818497 5.619998 34.715663-9.188266 44.454468-14.807241 9.719362-34.714639 5.599532-44.443212-9.199523-42.249243-64.203254-100.107999-117.359918-168.1947-154.114007-65.4742-35.296901-140.493801-55.360865-220.307591-55.360865-79.80458 0-154.834414 20.062941-220.309638 55.360865-68.087725 36.755112-125.935224 89.910753-168.1947 154.114007-9.729595 14.799054-29.625738 18.918885-44.445258 9.199523-14.807241-9.739828-18.917862-29.635971-9.188266-44.454468 18.554588-28.200272 39.720653-54.506405 63.154365-78.585823-4.849448-11.989055-7.398504-24.871457-7.398504-38.025035 0-55.943127 45.381583-101.313453 101.346199-101.313453 25.306362 0 49.314149 9.449209 67.659983 25.89067 66.370617-29.968545 139.963729-46.660716 217.374796-46.660716 78.17957 0 152.46853 17.024745 219.349777 47.576575 18.469654-17.024745 42.88267-26.806529 68.659753-26.806529 55.963593 0 101.345176 45.370327 101.345176 101.313453C901.459594 489.450425 898.59843 503.103376 893.165698 515.674693L893.165698 515.674693zM699.621657 660.756999 699.621657 660.756999c32.393781-18.711154 43.955094-59.315944 24.651446-92.739171-40.375569-69.950142-99.357915-111.451348-131.751696-92.76066-32.393781 18.688641-25.921369 90.532923 14.4542 160.503531C627.090736 670.558226 667.227876 679.44564 699.621657 660.756999z" p-id="11887"></path></svg>